<svg width="147" height="147" viewBox="0 0 147 147" fill="none" xmlns="http://www.w3.org/2000/svg">
<rect width="147" height="147" rx="17" fill="black"/>
<path d="M64.9766 42.2056V94.2475C64.9766 95.6787 64.701 97.096 64.1656 98.4183C63.6302 99.7406 62.8454 100.942 61.8561 101.954C60.8667 102.966 59.6923 103.769 58.3996 104.317C57.107 104.864 55.7216 105.146 54.3225 105.146C52.9234 105.146 51.538 104.864 50.2454 104.317C48.9528 103.769 47.7783 102.966 46.789 101.954C45.7996 100.942 45.0149 99.7406 44.4795 98.4183C43.944 97.096 43.6685 95.6787 43.6685 94.2475V53.1044C43.6685 51.6731 43.3929 50.2559 42.8575 48.9336C42.3221 47.6113 41.5373 46.4098 40.548 45.3978C39.5586 44.3857 38.3841 43.5829 37.0915 43.0352C35.7989 42.4875 34.4135 42.2056 33.0144 42.2056C31.6153 42.2056 30.2299 42.4875 28.9373 43.0352C27.6447 43.5829 26.4702 44.3857 25.4809 45.3978C24.4915 46.4098 23.7068 47.6113 23.1713 48.9336C22.6359 50.2559 22.3604 51.6731 22.3604 53.1044V105.146" stroke="#EBFB35" stroke-width="7"/>
<path d="M84.0869 42.2056V94.2475C84.0869 95.6787 84.3625 97.096 84.8979 98.4183C85.4333 99.7406 86.2181 100.942 87.2074 101.954C88.1967 102.966 89.3712 103.769 90.6638 104.317C91.9564 104.864 93.3419 105.146 94.741 105.146C96.1401 105.146 97.5255 104.864 98.8181 104.317C100.111 103.769 101.285 102.966 102.275 101.954C103.264 100.942 104.049 99.7406 104.584 98.4183C105.119 97.096 105.395 95.6787 105.395 94.2475V42.2056" stroke="#10F3F3" stroke-width="7"/>
<path d="M124.505 105.146V42.2056" stroke="#F51DDF" stroke-width="7"/>
</svg>
